# xmcd CD database file
#
# Track frame offsets:
#	150
#	14258
#	47005
#	70802
#	91342
#	103421
#	115813
#	132352
#	167283
#
# Disc length: 2551 seconds
#
# Revision: 0
# Processed by: cddbd v1.5.2PL0 Copyright (c) Steve Scherf et al.
# Submitted via: CDex 1.70beta2
#
DISCID=7009f509
DTITLE=Andambalrazz - DrásticaMente Alrazz
DYEAR=2007
DGENRE=Jazz
TTITLE0=Intro
TTITLE1=El gesto
TTITLE2=Candombe 74
TTITLE3=Juglar
TTITLE4=Perrritos Muertos
TTITLE5=Zambalrazz
TTITLE6=Cosas del Box
TTITLE7=Sambón (chocamucho)
TTITLE8=Milagros
EXTD=YEAR: 2007
EXTT0=
EXTT1=
EXTT2=
EXTT3=
EXTT4=
EXTT5=
EXTT6=
EXTT7=
EXTT8=
PLAYORDER=
